# Rhino

mtllib WATERFALL.mtl
usemtl waterfall
v -15069.62890625 7574.52587890625 27473.533203125
v -15069.62890625 7574.52587890625 26859.291015625
v -14826.06640625 5672.60986328125 27473.533203125
v -14826.06640625 5672.60986328125 26859.291015625
v -14823.2958984375 3652.60302734375 27473.533203125
v -14823.2958984375 3652.60302734375 26859.291015625
v -14821.5078125 1574.5257568359375 27473.533203125
v -14821.5078125 1574.5257568359375 26859.291015625
vt 0 0
vt 0 1
vt 0.90091091394424438 0
vt 0.90091091394424438 1
vt 0.96113651990890503 0
vt 0.96113651990890503 1
vt 1 0
vt 1 1
vn 0.47300663590431213 0.88105887174606323 0
vn 0.47300663590431213 0.88105887174606323 0
vn 0.99999809265136719 0.0019668044988065958 0
vn 0.99999809265136719 0.0019668044988065958 0
vn 0.99999946355819702 0.0010248379549011588 0
vn 0.99999946355819702 0.0010248379549011588 0
vn 0.99999970197677612 0.00073536805575713515 0
vn 0.99999970197677612 0.00073536805575713515 0
f 4/4/4 2/2/2 1/1/1 3/3/3
f 6/6/6 4/4/4 3/3/3 5/5/5
f 8/8/8 6/6/6 5/5/5 7/7/7
usemtl waterfall
v -14821.5078125 1574.5257568359375 21192.107421875
v -14821.5078125 1574.5257568359375 21806.349609375
v -14821.87109375 7235.28662109375 21192.107421875
v -14821.87109375 7235.28662109375 21806.349609375
v -14824.408203125 7292.29443359375 21192.107421875
v -14824.408203125 7292.29443359375 21806.349609375
v -14827.1728515625 7319.94482421875 21192.107421875
v -14827.1728515625 7319.94482421875 21806.349609375
v -14831.296875 7346.8193359375 21192.107421875
v -14831.296875 7346.8193359375 21806.349609375
v -14837.0517578125 7372.76318359375 21192.107421875
v -14837.0517578125 7372.76318359375 21806.349609375
v -14844.7109375 7397.62109375 21192.107421875
v -14844.7109375 7397.62109375 21806.349609375
v -14854.5771484375 7421.30712890625 21192.107421875
v -14854.5771484375 7421.30712890625 21806.349609375
v -14867.083984375 7444.01611328125 21192.107421875
v -14867.083984375 7444.01611328125 21806.349609375
v -14882.6962890625 7466.01171875 21192.107421875
v -14882.6962890625 7466.01171875 21806.349609375
v -14901.8798828125 7487.55810546875 21192.107421875
v -14901.8798828125 7487.55810546875 21806.349609375
v -14925.099609375 7508.91845703125 21192.107421875
v -14925.099609375 7508.91845703125 21806.349609375
v -14952.8203125 7530.357421875 21192.107421875
v -14952.8203125 7530.357421875 21806.349609375
v -14985.5087890625 7552.138671875 21192.107421875
v -14985.5087890625 7552.138671875 21806.349609375
v -15023.62890625 7574.52587890625 21192.107421875
v -15023.62890625 7574.52587890625 21806.349609375
vt 0 0
vt 0 1
vt 0.5625 0
vt 0.5625 1
vt 0.625 0
vt 0.625 1
vt 0.65625 0
vt 0.65625 1
vt 0.6875 0
vt 0.6875 1
vt 0.71875 0
vt 0.71875 1
vt 0.75 0
vt 0.75 1
vt 0.78125 0
vt 0.78125 1
vt 0.8125 0
vt 0.8125 1
vt 0.84375 0
vt 0.84375 1
vt 0.875 0
vt 0.875 1
vt 0.90625 0
vt 0.90625 1
vt 0.9375 0
vt 0.9375 1
vt 0.96875 0
vt 0.96875 1
vt 1 0
vt 1 1
vn 1 0 0
vn 1 0 0
vn 0.99982321262359619 0.018802279606461525 0
vn 0.99982321262359619 0.018802279606461525 0
vn 0.99699306488037109 0.077490836381912231 0
vn 0.99699306488037109 0.077490836381912231 0
vn 0.99233251810073853 0.12359684705734253 0
vn 0.99233251810073853 0.12359684705734253 0
vn 0.98328918218612671 0.18205045163631439 0
vn 0.98328918218612671 0.18205045163631439 0
vn 0.9673503041267395 0.25344312191009521 0
vn 0.9673503041267395 0.25344312191009521 0
vn 0.94130295515060425 0.33756297826766968 0
vn 0.94130295515060425 0.33756297826766968 0
vn 0.90159732103347778 0.43257635831832886 0
vn 0.90159732103347778 0.43257635831832886 0
vn 0.84732645750045776 0.53107243776321411 0
vn 0.84732645750045776 0.53107243776321411 0
vn 0.7819400429725647 0.62335366010665894 0
vn 0.7819400429725647 0.62335366010665894 0
vn 0.71183329820632935 0.70234841108322144 0
vn 0.71183329820632935 0.70234841108322144 0
vn 0.64364469051361084 0.76532447338104248 0
vn 0.64364469051361084 0.76532447338104248 0
vn 0.58207124471664429 0.81313776969909668 0
vn 0.58207124471664429 0.81313776969909668 0
vn 0.52932745218276978 0.84841763973236084 0
vn 0.52932745218276978 0.84841763973236084 0
vn 0.48573166131973267 0.8741079568862915 0
vn 0.48573166131973267 0.8741079568862915 0
f 9/9/9 11/11/11 12/12/12 10/10/10
f 11/11/11 13/13/13 14/14/14 12/12/12
f 13/13/13 15/15/15 16/16/16 14/14/14
f 15/15/15 17/17/17 18/18/18 16/16/16
f 17/17/17 19/19/19 20/20/20 18/18/18
f 19/19/19 21/21/21 22/22/22 20/20/20
f 21/21/21 23/23/23 24/24/24 22/22/22
f 23/23/23 25/25/25 26/26/26 24/24/24
f 25/25/25 27/27/27 28/28/28 26/26/26
f 27/27/27 29/29/29 30/30/30 28/28/28
f 29/29/29 31/31/31 32/32/32 30/30/30
f 31/31/31 33/33/33 34/34/34 32/32/32
f 33/33/33 35/35/35 36/36/36 34/34/34
f 35/35/35 37/37/37 38/38/38 36/36/36
