# Rhino

mtllib WATERFALL_SINGLE.mtl
usemtl waterfall
v -47011.375 7574.52587890625 6870.60009765625
v -46397.1328125 7574.52587890625 6870.60009765625
v -47011.375 5672.60986328125 6627.03759765625
v -46397.1328125 5672.60986328125 6627.03759765625
v -47011.375 3652.60302734375 6624.26708984375
v -46397.1328125 3652.60302734375 6624.26708984375
v -47011.375 1574.5257568359375 6622.4794921875
v -46397.1328125 1574.5257568359375 6622.4794921875
vt 0 0
vt 0 1
vt 0.90091091394424438 0
vt 0.90091091394424438 1
vt 0.96113651990890503 0
vt 0.96113651990890503 1
vt 1 0
vt 1 1
vn 0 0.88105887174606323 -0.47300663590431213
vn 0 0.88105887174606323 -0.47300663590431213
vn 0 0.0019668044988065958 -0.99999809265136719
vn 0 0.0019668044988065958 -0.99999809265136719
vn 0 0.0010248379549011588 -0.99999946355819702
vn 0 0.0010248379549011588 -0.99999946355819702
vn 0 0.00073536805575713515 -0.99999970197677612
vn 0 0.00073536805575713515 -0.99999970197677612
f 4/4/4 3/3/3 1/1/1 2/2/2
f 6/6/6 5/5/5 3/3/3 4/4/4
f 8/8/8 7/7/7 5/5/5 6/6/6
